<svg xmlns="http://www.w3.org/2000/svg" viewBox="0 0 120 170" width="120" height="170">
  <defs>
    <linearGradient id="bg" x1="0" y1="0" x2="0" y2="1">
      <stop offset="0%" stop-color="#5C3000"/>
      <stop offset="100%" stop-color="#2A1500"/>
    </linearGradient>
    <linearGradient id="banner" x1="0" y1="0" x2="0" y2="1">
      <stop offset="0%" stop-color="#7A4010"/>
      <stop offset="100%" stop-color="#2A1500"/>
    </linearGradient>
    <linearGradient id="shimmer" x1="0" y1="0" x2="1" y2="1">
      <stop offset="0%" stop-color="rgba(255,255,255,0.08)"/>
      <stop offset="50%" stop-color="rgba(255,255,255,0.0)"/>
      <stop offset="100%" stop-color="rgba(255,255,255,0.05)"/>
    </linearGradient>
    <clipPath id="cardClip">
      <rect x="2" y="2" width="116" height="166" rx="10" ry="10"/>
    </clipPath>
    <pattern id="pat" x="0" y="0" width="18" height="18" patternUnits="userSpaceOnUse">
        <path d="M0 9 Q4.5 0 9 9 Q13.5 18 18 9" fill="none" stroke="#3A1E00" stroke-width="0.5" opacity="0.5"/>
      </pattern>
  </defs>

  <!-- Fond principal -->
  <rect x="2" y="2" width="116" height="166" rx="10" fill="url(#bg)" clip-path="url(#cardClip)"/>
  <rect x="2" y="2" width="116" height="166" rx="10" fill="url(#pat)" clip-path="url(#cardClip)"/>
  <rect x="2" y="2" width="116" height="166" rx="10" fill="url(#shimmer)" clip-path="url(#cardClip)"/>

  <!-- Bordure extérieure double -->
  <rect x="1" y="1" width="118" height="168" rx="11" fill="none" stroke="#D47020" stroke-width="2.5"/>
  <rect x="4" y="4" width="112" height="162" rx="8" fill="none" stroke="#FF9A30" stroke-width="0.8" opacity="0.5"/>

  <!-- Ornements coins -->
  <circle cx="12" cy="12" r="5" fill="#E88020" opacity="0.6"/>
  <circle cx="108" cy="12" r="5" fill="#E88020" opacity="0.6"/>
  <circle cx="12" cy="158" r="5" fill="#E88020" opacity="0.6"/>
  <circle cx="108" cy="158" r="5" fill="#E88020" opacity="0.6"/>
  <path d="M7 12 L12 7 M108 7 L113 12 M7 158 L12 163 M113 158 L108 163" stroke="#FF9A30" stroke-width="1" opacity="0.6"/>

  <!-- Zone icône -->
  <rect x="30" y="18" width="60" height="58" rx="6" fill="rgba(0,0,0,0.35)"/>
  <rect x="30" y="18" width="60" height="58" rx="6" fill="none" stroke="#D47020" stroke-width="1" opacity="0.6"/>
  <g clip-path="url(#cardClip)" transform="translate(0, 5)">
    <path d="M45 55 Q60 25 75 55" fill="none" stroke="#E88020" stroke-width="3" stroke-linecap="round"/>
    <circle cx="48" cy="52" r="5" fill="#E88020"/>
    <circle cx="72" cy="52" r="5" fill="#E88020"/>
    <circle cx="60" cy="33" r="5" fill="#FFE0B0"/>
    <path d="M50 58 L70 58 L66 68 L54 68 Z" fill="#D47020"/>
  </g>

  <!-- Bandeau nom -->
  <rect x="6" y="80" width="108" height="20" rx="4" fill="url(#banner)"/>
  <rect x="6" y="80" width="108" height="20" rx="4" fill="none" stroke="#D47020" stroke-width="0.8" opacity="0.5"/>
  <text x="60" y="93" text-anchor="middle" font-family="Georgia,serif" font-size="8" font-weight="bold" fill="#FFE0B0" letter-spacing="0.5">COMPTOIR OUEST</text>

  <!-- Zone coût -->
  <text x="60" y="82" text-anchor="middle" font-family="sans-serif" font-size="5.5" fill="#E88020" opacity="0.8" letter-spacing="1">COÛT</text>
  <text x="60" y="88" text-anchor="middle" font-family="Georgia,serif" font-size="7" fill="#80FF80" font-weight="bold">GRATUIT</text>

  <!-- Séparateur -->
  <line x1="15" y1="100" x2="105" y2="100" stroke="#D47020" stroke-width="0.8" opacity="0.6"/>

  <!-- Zone effet -->
  <rect x="8" y="102" width="104" height="50" rx="4" fill="rgba(0,0,0,0.25)"/>
  <text x="60" y="108" text-anchor="middle" font-family="Georgia,serif" font-size="7.5" fill="white" font-weight="bold">Commerce ×1</text>

  <!-- Badge type bas -->
  <rect x="22" y="154" width="76" height="12" rx="5" fill="#7A4010"/>
  <rect x="22" y="154" width="76" height="12" rx="5" fill="none" stroke="#D47020" stroke-width="0.8"/>
  <text x="60" y="163" text-anchor="middle" font-family="sans-serif" font-size="6" font-weight="bold" fill="#FFE0B0" letter-spacing="1.5">COMMERCE</text>

  <!-- Âge indicator -->
  <text x="60" y="148" text-anchor="middle" font-family="sans-serif" font-size="5.5" fill="#E88020" opacity="0.7">ÂGE 1</text>
</svg>