<svg xmlns="http://www.w3.org/2000/svg" viewBox="0 0 800 280" width="800" height="280">
  <defs>
    <clipPath id="boardClip">
      <rect x="0" y="0" width="800" height="280" rx="16"/>
    </clipPath>
  </defs>
  <g clip-path="url(#boardClip)">
    
      <!-- Ciel nocturne -->
      <rect x="0" y="0" width="800" height="154" fill="#0a1a2e"/>
      <!-- Étoiles abondantes -->
      <circle cx="10" cy="5" r="2.5" fill="white" opacity="0.2"/><circle cx="23" cy="35" r="1" fill="white" opacity="0.35"/><circle cx="36" cy="10" r="1" fill="white" opacity="0.5"/><circle cx="49" cy="40" r="1" fill="white" opacity="0.6499999999999999"/><circle cx="62" cy="15" r="1" fill="white" opacity="0.8"/><circle cx="75" cy="45" r="2.5" fill="white" opacity="0.2"/><circle cx="88" cy="20" r="1" fill="white" opacity="0.35"/><circle cx="101" cy="50" r="1" fill="white" opacity="0.5"/><circle cx="114" cy="25" r="1" fill="white" opacity="0.6499999999999999"/><circle cx="127" cy="55" r="1" fill="white" opacity="0.8"/><circle cx="140" cy="30" r="2.5" fill="white" opacity="0.2"/><circle cx="153" cy="5" r="1" fill="white" opacity="0.35"/><circle cx="166" cy="35" r="1" fill="white" opacity="0.5"/><circle cx="179" cy="10" r="1" fill="white" opacity="0.6499999999999999"/><circle cx="192" cy="40" r="1" fill="white" opacity="0.8"/><circle cx="205" cy="15" r="2.5" fill="white" opacity="0.2"/><circle cx="218" cy="45" r="1" fill="white" opacity="0.35"/><circle cx="231" cy="20" r="1" fill="white" opacity="0.5"/><circle cx="244" cy="50" r="1" fill="white" opacity="0.6499999999999999"/><circle cx="257" cy="25" r="1" fill="white" opacity="0.8"/><circle cx="270" cy="55" r="2.5" fill="white" opacity="0.2"/><circle cx="283" cy="30" r="1" fill="white" opacity="0.35"/><circle cx="296" cy="5" r="1" fill="white" opacity="0.5"/><circle cx="309" cy="35" r="1" fill="white" opacity="0.6499999999999999"/><circle cx="322" cy="10" r="1" fill="white" opacity="0.8"/><circle cx="335" cy="40" r="2.5" fill="white" opacity="0.2"/><circle cx="348" cy="15" r="1" fill="white" opacity="0.35"/><circle cx="361" cy="45" r="1" fill="white" opacity="0.5"/><circle cx="374" cy="20" r="1" fill="white" opacity="0.6499999999999999"/><circle cx="387" cy="50" r="1" fill="white" opacity="0.8"/><circle cx="400" cy="25" r="2.5" fill="white" opacity="0.2"/><circle cx="413" cy="55" r="1" fill="white" opacity="0.35"/><circle cx="426" cy="30" r="1" fill="white" opacity="0.5"/><circle cx="439" cy="5" r="1" fill="white" opacity="0.6499999999999999"/><circle cx="452" cy="35" r="1" fill="white" opacity="0.8"/><circle cx="465" cy="10" r="2.5" fill="white" opacity="0.2"/><circle cx="478" cy="40" r="1" fill="white" opacity="0.35"/><circle cx="491" cy="15" r="1" fill="white" opacity="0.5"/><circle cx="504" cy="45" r="1" fill="white" opacity="0.6499999999999999"/><circle cx="517" cy="20" r="1" fill="white" opacity="0.8"/><circle cx="530" cy="50" r="2.5" fill="white" opacity="0.2"/><circle cx="543" cy="25" r="1" fill="white" opacity="0.35"/><circle cx="556" cy="55" r="1" fill="white" opacity="0.5"/><circle cx="569" cy="30" r="1" fill="white" opacity="0.6499999999999999"/><circle cx="582" cy="5" r="1" fill="white" opacity="0.8"/><circle cx="595" cy="35" r="2.5" fill="white" opacity="0.2"/><circle cx="608" cy="10" r="1" fill="white" opacity="0.35"/><circle cx="621" cy="40" r="1" fill="white" opacity="0.5"/><circle cx="634" cy="15" r="1" fill="white" opacity="0.6499999999999999"/><circle cx="647" cy="45" r="1" fill="white" opacity="0.8"/>
      <!-- Mer nocturne -->
      <rect x="0" y="148.4" width="800" height="131.6" fill="#0d2a44"/>
      <rect x="0" y="168" width="800" height="112" fill="#0a2038"/>
      <!-- Reflet lumière phare sur mer -->
      <polygon points="340,84 200,280" width="280" fill="#FFD700" opacity="0.04"/>
      <polygon points="340,84 280,280" width="120" fill="#FFD700" opacity="0.06"/>
      <!-- Île rocheuse -->
      <ellipse cx="340" cy="210" rx="220" ry="40" fill="#3a3020"/>
      <ellipse cx="340" cy="201.6" rx="200" ry="35" fill="#4a4030"/>
      <!-- Base du phare -->
      <rect x="270" y="145.6" width="140" height="61.6" fill="#D4C8A0"/>
      <rect x="270" y="145.6" width="140" height="61.6" fill="none" stroke="#C8BC94" stroke-width="2"/>
      <!-- Colonnes base -->
      <rect x="278" y="145.6" width="10" height="61.6" fill="#C0B488"/><rect x="302" y="145.6" width="10" height="61.6" fill="#C0B488"/><rect x="326" y="145.6" width="10" height="61.6" fill="#C0B488"/><rect x="350" y="145.6" width="10" height="61.6" fill="#C0B488"/><rect x="374" y="145.6" width="10" height="61.6" fill="#C0B488"/>
      <!-- Tour 1er étage -->
      <rect x="290" y="98" width="100" height="50.4" fill="#C8C0A0"/>
      <rect x="290" y="98" width="100" height="50.4" fill="none" stroke="#B8B090" stroke-width="1.5"/>
      <!-- Colonnes 1er étage -->
      <rect x="298" y="98" width="8" height="50.4" fill="#B8B090"/><rect x="320" y="98" width="8" height="50.4" fill="#B8B090"/><rect x="342" y="98" width="8" height="50.4" fill="#B8B090"/><rect x="364" y="98" width="8" height="50.4" fill="#B8B090"/>
      <!-- Tour 2e étage octogonal -->
      <polygon points="310,70 370,70 380,78.4 380,100.8 370,100.8 310,100.8 300,78.4" fill="#D4CCAA"/>
      <!-- Lanterne -->
      <rect x="320" y="47.6" width="40" height="25.2" rx="4" fill="#8080C0"/>
      <!-- Flamme / Lumière -->
      <ellipse cx="340" cy="42" rx="22" ry="28" fill="#FFD700" opacity="0.9"/>
      <ellipse cx="340" cy="33.6" rx="14" ry="20" fill="#FFF0A0" opacity="0.95"/>
      <ellipse cx="340" cy="25.2" rx="7" ry="12" fill="white" opacity="0.9"/>
      <!-- Rayons de lumière -->
      <line x1="340" y1="36.4" x2="460" y2="36.4" stroke="#FFD700" stroke-width="2" opacity="0.1"/><line x1="340" y1="36.4" x2="424.8528137423857" y2="121.25281374238568" stroke="#FFD700" stroke-width="2" opacity="0.15000000000000002"/><line x1="340" y1="36.4" x2="340" y2="156.4" stroke="#FFD700" stroke-width="2" opacity="0.1"/><line x1="340" y1="36.4" x2="255.1471862576143" y2="121.25281374238571" stroke="#FFD700" stroke-width="2" opacity="0.15000000000000002"/><line x1="340" y1="36.4" x2="220" y2="36.40000000000001" stroke="#FFD700" stroke-width="2" opacity="0.1"/><line x1="340" y1="36.4" x2="255.1471862576143" y2="-48.45281374238569" stroke="#FFD700" stroke-width="2" opacity="0.15000000000000002"/><line x1="340" y1="36.4" x2="340" y2="-83.6" stroke="#FFD700" stroke-width="2" opacity="0.1"/><line x1="340" y1="36.4" x2="424.8528137423857" y2="-48.45281374238572" stroke="#FFD700" stroke-width="2" opacity="0.15000000000000002"/>
      <!-- Statues -->
      <rect x="248" y="134.4" width="12" height="35" rx="3" fill="#C0B080"/>
      <circle cx="254" cy="128.8" r="8" fill="#C0B080"/>
      <rect x="420" y="134.4" width="12" height="35" rx="3" fill="#C0B080"/>
      <circle cx="426" cy="128.8" r="8" fill="#C0B080"/>
    
    <!-- Overlay dégradé bas -->
    <rect x="0" y="190.4" width="800" height="89.60000000000001" fill="rgba(0,0,0,0.45)"/>
    <!-- Bordure dorée -->
    <rect x="0" y="0" width="800" height="280" rx="16" fill="none" stroke="#42A5F5" stroke-width="3"/>
    <rect x="4" y="4" width="792" height="272" rx="13" fill="none" stroke="#42A5F5" stroke-width="0.8" opacity="0.4"/>
    <!-- Bandeau nom -->
    <rect x="0" y="0" width="220" height="44" rx="0" fill="rgba(0,0,0,0.65)"/>
    <rect x="0" y="0" width="220" height="3" fill="#42A5F5"/>
    <text x="16" y="20" font-family="'Georgia',serif" font-size="18" font-weight="bold" fill="#42A5F5">Alexandrie</text>
    <text x="16" y="36" font-family="sans-serif" font-size="10" fill="rgba(255,255,255,0.7)">Le Phare · Égypte</text>
    <!-- Ressource de départ -->
    <rect x="710" y="8" width="78" height="30" rx="6" fill="rgba(0,0,0,0.65)" stroke="#42A5F5" stroke-width="1"/>
    <text x="722" y="28" font-family="Georgia,serif" font-size="11" fill="white">Départ : ◈</text>
    <!-- Étapes -->
    
      <rect x="30" y="215" width="230" height="52" rx="6" fill="rgba(0,0,0,0.55)" stroke="#42A5F5" stroke-width="1.2"/>
      <text x="42" y="231" font-family="Georgia,serif" font-size="8" fill="#42A5F5" opacity="0.8">ÉT. 1</text>
      <circle cx="50" cy="238" r="8" fill="#78909C" stroke="rgba(255,255,255,0.3)" stroke-width="1"/>
       <text x="50" y="242" text-anchor="middle" font-family="Georgia" font-size="7" fill="white"></text><circle cx="68" cy="238" r="8" fill="#78909C" stroke="rgba(255,255,255,0.3)" stroke-width="1"/>
       <text x="68" y="242" text-anchor="middle" font-family="Georgia" font-size="7" fill="white"></text>
      <text x="42" y="256" font-family="Georgia,serif" font-size="10" font-weight="bold" fill="white">+3 VP</text>
      <text x="42" y="270" font-family="sans-serif" font-size="8" fill="rgba(255,255,255,0.6)">2 Pierre</text>
    
      <rect x="282" y="215" width="230" height="52" rx="6" fill="rgba(0,0,0,0.55)" stroke="#42A5F5" stroke-width="1.2"/>
      <text x="294" y="231" font-family="Georgia,serif" font-size="8" fill="#42A5F5" opacity="0.8">ÉT. 2</text>
      <circle cx="302" cy="238" r="8" fill="#607D8B" stroke="rgba(255,255,255,0.3)" stroke-width="1"/>
       <text x="302" y="242" text-anchor="middle" font-family="Georgia" font-size="7" fill="white"></text><circle cx="320" cy="238" r="8" fill="#607D8B" stroke="rgba(255,255,255,0.3)" stroke-width="1"/>
       <text x="320" y="242" text-anchor="middle" font-family="Georgia" font-size="7" fill="white"></text>
      <text x="294" y="256" font-family="Georgia,serif" font-size="10" font-weight="bold" fill="white">Ressource au choix</text>
      <text x="294" y="270" font-family="sans-serif" font-size="8" fill="rgba(255,255,255,0.6)">2 Minerai</text>
    
      <rect x="534" y="215" width="230" height="52" rx="6" fill="rgba(0,0,0,0.55)" stroke="#42A5F5" stroke-width="1.2"/>
      <text x="546" y="231" font-family="Georgia,serif" font-size="8" fill="#42A5F5" opacity="0.8">ÉT. 3</text>
      <circle cx="554" cy="238" r="8" fill="#26C6DA" stroke="rgba(255,255,255,0.3)" stroke-width="1"/>
       <text x="554" y="242" text-anchor="middle" font-family="Georgia" font-size="7" fill="white"></text><circle cx="572" cy="238" r="8" fill="#26C6DA" stroke="rgba(255,255,255,0.3)" stroke-width="1"/>
       <text x="572" y="242" text-anchor="middle" font-family="Georgia" font-size="7" fill="white"></text>
      <text x="546" y="256" font-family="Georgia,serif" font-size="10" font-weight="bold" fill="white">+7 VP</text>
      <text x="546" y="270" font-family="sans-serif" font-size="8" fill="rgba(255,255,255,0.6)">2 Verre</text>
    
  </g>
</svg>