<svg xmlns="http://www.w3.org/2000/svg" viewBox="0 0 800 280" width="800" height="280">
  <defs>
    <clipPath id="boardClip">
      <rect x="0" y="0" width="800" height="280" rx="16"/>
    </clipPath>
  </defs>
  <g clip-path="url(#boardClip)">
    
      <!-- Ciel aurore dorée -->
      <rect x="0" y="0" width="800" height="154" fill="#1a0a00"/>
      <rect x="0" y="70" width="800" height="84" fill="#3d1500" opacity="0.7"/>
      <!-- Lueur de l'aube -->
      <ellipse cx="340" cy="145.6" rx="200" ry="80" fill="#FF6600" opacity="0.2"/>
      <ellipse cx="340" cy="154" rx="150" ry="50" fill="#FF8800" opacity="0.15"/>
      <!-- Étoiles qui s'éteignent -->
      <circle cx="15" cy="5" r="1.5" fill="white" opacity="0.15"/><circle cx="41" cy="36" r="1.5" fill="white" opacity="0.22999999999999998"/><circle cx="67" cy="27" r="1.5" fill="white" opacity="0.31"/><circle cx="93" cy="18" r="1.5" fill="white" opacity="0.39"/><circle cx="119" cy="9" r="1.5" fill="white" opacity="0.15"/><circle cx="145" cy="40" r="1.5" fill="white" opacity="0.22999999999999998"/><circle cx="171" cy="31" r="1.5" fill="white" opacity="0.31"/><circle cx="197" cy="22" r="1.5" fill="white" opacity="0.39"/><circle cx="223" cy="13" r="1.5" fill="white" opacity="0.15"/><circle cx="249" cy="44" r="1.5" fill="white" opacity="0.22999999999999998"/><circle cx="275" cy="35" r="1.5" fill="white" opacity="0.31"/><circle cx="301" cy="26" r="1.5" fill="white" opacity="0.39"/><circle cx="327" cy="17" r="1.5" fill="white" opacity="0.15"/><circle cx="353" cy="8" r="1.5" fill="white" opacity="0.22999999999999998"/><circle cx="379" cy="39" r="1.5" fill="white" opacity="0.31"/><circle cx="405" cy="30" r="1.5" fill="white" opacity="0.39"/><circle cx="431" cy="21" r="1.5" fill="white" opacity="0.15"/><circle cx="457" cy="12" r="1.5" fill="white" opacity="0.22999999999999998"/><circle cx="483" cy="43" r="1.5" fill="white" opacity="0.31"/><circle cx="509" cy="34" r="1.5" fill="white" opacity="0.39"/><circle cx="535" cy="25" r="1.5" fill="white" opacity="0.15"/><circle cx="561" cy="16" r="1.5" fill="white" opacity="0.22999999999999998"/><circle cx="587" cy="7" r="1.5" fill="white" opacity="0.31"/><circle cx="613" cy="38" r="1.5" fill="white" opacity="0.39"/><circle cx="639" cy="29" r="1.5" fill="white" opacity="0.15"/>
      <!-- Soleil levant -->
      <circle cx="340" cy="151.20000000000002" r="35" fill="#FF8800" opacity="0.7"/>
      <circle cx="340" cy="151.20000000000002" r="22" fill="#FFAA00" opacity="0.85"/>
      <!-- Rayons -->
      <line x1="340" y1="151.20000000000002" x2="420" y2="151.20000000000002" stroke="#FFD700" stroke-width="2" opacity="0.15"/><line x1="340" y1="151.20000000000002" x2="409.2820323027551" y2="191.20000000000002" stroke="#FFD700" stroke-width="2" opacity="0.15"/><line x1="340" y1="151.20000000000002" x2="380" y2="220.4820323027551" stroke="#FFD700" stroke-width="2" opacity="0.15"/><line x1="340" y1="151.20000000000002" x2="340" y2="231.20000000000002" stroke="#FFD700" stroke-width="2" opacity="0.15"/><line x1="340" y1="151.20000000000002" x2="300" y2="220.4820323027551" stroke="#FFD700" stroke-width="2" opacity="0.15"/><line x1="340" y1="151.20000000000002" x2="270.7179676972449" y2="191.20000000000002" stroke="#FFD700" stroke-width="2" opacity="0.15"/><line x1="340" y1="151.20000000000002" x2="260" y2="151.20000000000002" stroke="#FFD700" stroke-width="2" opacity="0.15"/><line x1="340" y1="151.20000000000002" x2="270.71796769724494" y2="111.20000000000002" stroke="#FFD700" stroke-width="2" opacity="0.15"/><line x1="340" y1="151.20000000000002" x2="299.99999999999994" y2="81.91796769724493" stroke="#FFD700" stroke-width="2" opacity="0.15"/><line x1="340" y1="151.20000000000002" x2="340" y2="71.20000000000002" stroke="#FFD700" stroke-width="2" opacity="0.15"/><line x1="340" y1="151.20000000000002" x2="380" y2="81.91796769724493" stroke="#FFD700" stroke-width="2" opacity="0.15"/><line x1="340" y1="151.20000000000002" x2="409.28203230275506" y2="111.19999999999999" stroke="#FFD700" stroke-width="2" opacity="0.15"/>
      <!-- Collines verdoyantes -->
      <ellipse cx="120" cy="201.6" rx="200" ry="55" fill="#1a3a0a"/>
      <ellipse cx="570" cy="207.2" rx="180" ry="50" fill="#1e4010"/>
      <rect x="0" y="204.4" width="800" height="75.60000000000001" fill="#2D5A1B"/>
      <rect x="0" y="229.6" width="800" height="50.4" fill="#1a3a0a"/>
      <!-- Marches du temple -->
      <rect x="100" y="168" width="480" height="7" fill="#E8E0C8"/><rect x="110" y="175" width="460" height="7" fill="#D8D0B8"/><rect x="120" y="182" width="440" height="7" fill="#E8E0C8"/><rect x="130" y="189" width="420" height="7" fill="#D8D0B8"/><rect x="140" y="196" width="400" height="7" fill="#E8E0C8"/>
      <!-- Temple d'Artémis — colonnade principale -->
      <rect x="110" y="112" width="460" height="58.8" fill="#F0E8D0"/>
      <!-- Nombreuses colonnes (temple ionique) -->
      <rect x="115" y="112" width="14" height="58.8" fill="#E0D8C0"/><rect x="147" y="112" width="14" height="58.8" fill="#E0D8C0"/><rect x="179" y="112" width="14" height="58.8" fill="#E0D8C0"/><rect x="211" y="112" width="14" height="58.8" fill="#E0D8C0"/><rect x="243" y="112" width="14" height="58.8" fill="#E0D8C0"/><rect x="275" y="112" width="14" height="58.8" fill="#E0D8C0"/><rect x="307" y="112" width="14" height="58.8" fill="#E0D8C0"/><rect x="339" y="112" width="14" height="58.8" fill="#E0D8C0"/><rect x="371" y="112" width="14" height="58.8" fill="#E0D8C0"/><rect x="403" y="112" width="14" height="58.8" fill="#E0D8C0"/><rect x="435" y="112" width="14" height="58.8" fill="#E0D8C0"/><rect x="467" y="112" width="14" height="58.8" fill="#E0D8C0"/><rect x="499" y="112" width="14" height="58.8" fill="#E0D8C0"/><rect x="531" y="112" width="14" height="58.8" fill="#E0D8C0"/>
      <!-- Chapiteaux ioniques -->
      
        <path d="M115,112 Q122,106.4 129,112" fill="#D0C8B0"/>
        <path d="M115,112 Q122,117.6 129,112" fill="none" stroke="#C0B8A0" stroke-width="0.5"/>
      
        <path d="M147,112 Q154,106.4 161,112" fill="#D0C8B0"/>
        <path d="M147,112 Q154,117.6 161,112" fill="none" stroke="#C0B8A0" stroke-width="0.5"/>
      
        <path d="M179,112 Q186,106.4 193,112" fill="#D0C8B0"/>
        <path d="M179,112 Q186,117.6 193,112" fill="none" stroke="#C0B8A0" stroke-width="0.5"/>
      
        <path d="M211,112 Q218,106.4 225,112" fill="#D0C8B0"/>
        <path d="M211,112 Q218,117.6 225,112" fill="none" stroke="#C0B8A0" stroke-width="0.5"/>
      
        <path d="M243,112 Q250,106.4 257,112" fill="#D0C8B0"/>
        <path d="M243,112 Q250,117.6 257,112" fill="none" stroke="#C0B8A0" stroke-width="0.5"/>
      
        <path d="M275,112 Q282,106.4 289,112" fill="#D0C8B0"/>
        <path d="M275,112 Q282,117.6 289,112" fill="none" stroke="#C0B8A0" stroke-width="0.5"/>
      
        <path d="M307,112 Q314,106.4 321,112" fill="#D0C8B0"/>
        <path d="M307,112 Q314,117.6 321,112" fill="none" stroke="#C0B8A0" stroke-width="0.5"/>
      
        <path d="M339,112 Q346,106.4 353,112" fill="#D0C8B0"/>
        <path d="M339,112 Q346,117.6 353,112" fill="none" stroke="#C0B8A0" stroke-width="0.5"/>
      
        <path d="M371,112 Q378,106.4 385,112" fill="#D0C8B0"/>
        <path d="M371,112 Q378,117.6 385,112" fill="none" stroke="#C0B8A0" stroke-width="0.5"/>
      
        <path d="M403,112 Q410,106.4 417,112" fill="#D0C8B0"/>
        <path d="M403,112 Q410,117.6 417,112" fill="none" stroke="#C0B8A0" stroke-width="0.5"/>
      
        <path d="M435,112 Q442,106.4 449,112" fill="#D0C8B0"/>
        <path d="M435,112 Q442,117.6 449,112" fill="none" stroke="#C0B8A0" stroke-width="0.5"/>
      
        <path d="M467,112 Q474,106.4 481,112" fill="#D0C8B0"/>
        <path d="M467,112 Q474,117.6 481,112" fill="none" stroke="#C0B8A0" stroke-width="0.5"/>
      
        <path d="M499,112 Q506,106.4 513,112" fill="#D0C8B0"/>
        <path d="M499,112 Q506,117.6 513,112" fill="none" stroke="#C0B8A0" stroke-width="0.5"/>
      
        <path d="M531,112 Q538,106.4 545,112" fill="#D0C8B0"/>
        <path d="M531,112 Q538,117.6 545,112" fill="none" stroke="#C0B8A0" stroke-width="0.5"/>
      
      <!-- Fronton -->
      <polygon points="100,112 340,70 580,112" fill="#F0E8D0"/>
      <polygon points="100,112 580,112 580,117.6 100,117.6" fill="#D8D0B8"/>
      <!-- Statue Artémis dans le fronton -->
      <rect x="326" y="84" width="28" height="35" rx="4" fill="#D8D060"/>
      <circle cx="340" cy="75.60000000000001" r="11" fill="#E0D870"/>
      <!-- Croissant de lune sur la tête -->
      <path d="M332,61.6 Q340,53.2 348,61.6" fill="none" stroke="#FFD700" stroke-width="3"/>
      <!-- Décoration frise sculptée -->
      <rect x="115" y="112" width="18" height="10" fill="#C8C0A0"/><rect x="153" y="112" width="18" height="10" fill="#D0C8A8"/><rect x="191" y="112" width="18" height="10" fill="#B8B098"/><rect x="229" y="112" width="18" height="10" fill="#C8C0A0"/><rect x="267" y="112" width="18" height="10" fill="#D0C8A8"/><rect x="305" y="112" width="18" height="10" fill="#B8B098"/><rect x="343" y="112" width="18" height="10" fill="#C8C0A0"/><rect x="381" y="112" width="18" height="10" fill="#D0C8A8"/><rect x="419" y="112" width="18" height="10" fill="#B8B098"/><rect x="457" y="112" width="18" height="10" fill="#C8C0A0"/><rect x="495" y="112" width="18" height="10" fill="#D0C8A8"/><rect x="533" y="112" width="18" height="10" fill="#B8B098"/>
      <!-- Arbres sacrés -->
      <rect x="52" y="156.8" width="7" height="65" fill="#5C3A10"/>
      <ellipse cx="55" cy="148.4" rx="25" ry="20" fill="#2D6B1F"/>
      <rect x="624" y="162.39999999999998" width="7" height="60" fill="#5C3A10"/>
      <ellipse cx="627" cy="154" rx="23" ry="18" fill="#256018"/>
      <!-- Prêtresses procession -->
      
        <rect x="195" y="201.6" width="9" height="22" rx="3" fill="#E8D0A0"/>
        <circle cx="199" cy="196" r="6" fill="#D8C090"/>
      
        <rect x="225" y="201.6" width="9" height="22" rx="3" fill="#E8D0A0"/>
        <circle cx="229" cy="196" r="6" fill="#D8C090"/>
      
        <rect x="255" y="201.6" width="9" height="22" rx="3" fill="#E8D0A0"/>
        <circle cx="259" cy="196" r="6" fill="#D8C090"/>
      
        <rect x="285" y="201.6" width="9" height="22" rx="3" fill="#E8D0A0"/>
        <circle cx="289" cy="196" r="6" fill="#D8C090"/>
      
    
    <!-- Overlay dégradé bas -->
    <rect x="0" y="190.4" width="800" height="89.60000000000001" fill="rgba(0,0,0,0.45)"/>
    <!-- Bordure dorée -->
    <rect x="0" y="0" width="800" height="280" rx="16" fill="none" stroke="#FFA726" stroke-width="3"/>
    <rect x="4" y="4" width="792" height="272" rx="13" fill="none" stroke="#FFA726" stroke-width="0.8" opacity="0.4"/>
    <!-- Bandeau nom -->
    <rect x="0" y="0" width="220" height="44" rx="0" fill="rgba(0,0,0,0.65)"/>
    <rect x="0" y="0" width="220" height="3" fill="#FFA726"/>
    <text x="16" y="20" font-family="'Georgia',serif" font-size="18" font-weight="bold" fill="#FFA726">Éphèse</text>
    <text x="16" y="36" font-family="sans-serif" font-size="10" fill="rgba(255,255,255,0.7)">Le Temple · Ionie</text>
    <!-- Ressource de départ -->
    <rect x="710" y="8" width="78" height="30" rx="6" fill="rgba(0,0,0,0.65)" stroke="#FFA726" stroke-width="1"/>
    <text x="722" y="28" font-family="Georgia,serif" font-size="11" fill="white">Départ : 📜</text>
    <!-- Étapes -->
    
      <rect x="30" y="215" width="230" height="52" rx="6" fill="rgba(0,0,0,0.55)" stroke="#FFA726" stroke-width="1.2"/>
      <text x="42" y="231" font-family="Georgia,serif" font-size="8" fill="#FFA726" opacity="0.8">ÉT. 1</text>
      <circle cx="50" cy="238" r="8" fill="#78909C" stroke="rgba(255,255,255,0.3)" stroke-width="1"/>
       <text x="50" y="242" text-anchor="middle" font-family="Georgia" font-size="7" fill="white"></text><circle cx="68" cy="238" r="8" fill="#78909C" stroke="rgba(255,255,255,0.3)" stroke-width="1"/>
       <text x="68" y="242" text-anchor="middle" font-family="Georgia" font-size="7" fill="white"></text>
      <text x="42" y="256" font-family="Georgia,serif" font-size="10" font-weight="bold" fill="white">+3 VP</text>
      <text x="42" y="270" font-family="sans-serif" font-size="8" fill="rgba(255,255,255,0.6)">2 Pierre</text>
    
      <rect x="282" y="215" width="230" height="52" rx="6" fill="rgba(0,0,0,0.55)" stroke="#FFA726" stroke-width="1.2"/>
      <text x="294" y="231" font-family="Georgia,serif" font-size="8" fill="#FFA726" opacity="0.8">ÉT. 2</text>
      <circle cx="302" cy="238" r="8" fill="#8B4513" stroke="rgba(255,255,255,0.3)" stroke-width="1"/>
       <text x="302" y="242" text-anchor="middle" font-family="Georgia" font-size="7" fill="white"></text><circle cx="320" cy="238" r="8" fill="#8B4513" stroke="rgba(255,255,255,0.3)" stroke-width="1"/>
       <text x="320" y="242" text-anchor="middle" font-family="Georgia" font-size="7" fill="white"></text>
      <text x="294" y="256" font-family="Georgia,serif" font-size="10" font-weight="bold" fill="white">+9 pièces</text>
      <text x="294" y="270" font-family="sans-serif" font-size="8" fill="rgba(255,255,255,0.6)">2 Bois</text>
    
      <rect x="534" y="215" width="230" height="52" rx="6" fill="rgba(0,0,0,0.55)" stroke="#FFA726" stroke-width="1.2"/>
      <text x="546" y="231" font-family="Georgia,serif" font-size="8" fill="#FFA726" opacity="0.8">ÉT. 3</text>
      <circle cx="554" cy="238" r="8" fill="#9E8B5E" stroke="rgba(255,255,255,0.3)" stroke-width="1"/>
       <text x="554" y="242" text-anchor="middle" font-family="Georgia" font-size="7" fill="white"></text><circle cx="572" cy="238" r="8" fill="#9E8B5E" stroke="rgba(255,255,255,0.3)" stroke-width="1"/>
       <text x="572" y="242" text-anchor="middle" font-family="Georgia" font-size="7" fill="white"></text>
      <text x="546" y="256" font-family="Georgia,serif" font-size="10" font-weight="bold" fill="white">+7 VP</text>
      <text x="546" y="270" font-family="sans-serif" font-size="8" fill="rgba(255,255,255,0.6)">2 Papyrus</text>
    
  </g>
</svg>