<svg xmlns="http://www.w3.org/2000/svg" viewBox="0 0 800 280" width="800" height="280">
  <defs>
    <clipPath id="boardClip">
      <rect x="0" y="0" width="800" height="280" rx="16"/>
    </clipPath>
  </defs>
  <g clip-path="url(#boardClip)">
    
      <!-- Ciel grec crépuscule -->
      <rect x="0" y="0" width="800" height="154" fill="#0d1a35"/>
      <rect x="0" y="98" width="800" height="56" fill="#1a0d05" opacity="0.6"/>
      <!-- Étoiles -->
      <circle cx="20" cy="8" r="1.5" fill="white" opacity="0.25"/><circle cx="42" cy="45" r="1.5" fill="white" opacity="0.37"/><circle cx="64" cy="40" r="1.5" fill="white" opacity="0.49"/><circle cx="86" cy="35" r="1.5" fill="white" opacity="0.61"/><circle cx="108" cy="30" r="1.5" fill="white" opacity="0.73"/><circle cx="130" cy="25" r="1.5" fill="white" opacity="0.25"/><circle cx="152" cy="20" r="1.5" fill="white" opacity="0.37"/><circle cx="174" cy="15" r="1.5" fill="white" opacity="0.49"/><circle cx="196" cy="10" r="1.5" fill="white" opacity="0.61"/><circle cx="218" cy="47" r="1.5" fill="white" opacity="0.73"/><circle cx="240" cy="42" r="1.5" fill="white" opacity="0.25"/><circle cx="262" cy="37" r="1.5" fill="white" opacity="0.37"/><circle cx="284" cy="32" r="1.5" fill="white" opacity="0.49"/><circle cx="306" cy="27" r="1.5" fill="white" opacity="0.61"/><circle cx="328" cy="22" r="1.5" fill="white" opacity="0.73"/><circle cx="350" cy="17" r="1.5" fill="white" opacity="0.25"/><circle cx="372" cy="12" r="1.5" fill="white" opacity="0.37"/><circle cx="394" cy="49" r="1.5" fill="white" opacity="0.49"/><circle cx="416" cy="44" r="1.5" fill="white" opacity="0.61"/><circle cx="438" cy="39" r="1.5" fill="white" opacity="0.73"/><circle cx="460" cy="34" r="1.5" fill="white" opacity="0.25"/><circle cx="482" cy="29" r="1.5" fill="white" opacity="0.37"/><circle cx="504" cy="24" r="1.5" fill="white" opacity="0.49"/><circle cx="526" cy="19" r="1.5" fill="white" opacity="0.61"/><circle cx="548" cy="14" r="1.5" fill="white" opacity="0.73"/><circle cx="570" cy="9" r="1.5" fill="white" opacity="0.25"/><circle cx="592" cy="46" r="1.5" fill="white" opacity="0.37"/><circle cx="614" cy="41" r="1.5" fill="white" opacity="0.49"/><circle cx="636" cy="36" r="1.5" fill="white" opacity="0.61"/><circle cx="658" cy="31" r="1.5" fill="white" opacity="0.73"/>
      <!-- Verdure collines -->
      <ellipse cx="100" cy="201.6" rx="180" ry="60" fill="#1a4010"/>
      <ellipse cx="580" cy="207.2" rx="160" ry="55" fill="#1e4814"/>
      <rect x="0" y="204.4" width="800" height="75.60000000000001" fill="#2D5A1B"/>
      <rect x="0" y="224" width="800" height="56" fill="#1a3a10"/>
      <!-- Temple d'Olympie — colonnade -->
      <rect x="120" y="140" width="440" height="70" fill="#E8E0C8"/>
      <rect x="110" y="151.20000000000002" width="460" height="12" fill="#D8D0B8"/>
      <rect x="110" y="201.6" width="460" height="12" fill="#D8D0B8"/>
      <!-- Colonnes -->
      <rect x="120" y="151.20000000000002" width="16" height="50.4" fill="#CCC4A8"/><rect x="162" y="151.20000000000002" width="16" height="50.4" fill="#CCC4A8"/><rect x="204" y="151.20000000000002" width="16" height="50.4" fill="#CCC4A8"/><rect x="246" y="151.20000000000002" width="16" height="50.4" fill="#CCC4A8"/><rect x="288" y="151.20000000000002" width="16" height="50.4" fill="#CCC4A8"/><rect x="330" y="151.20000000000002" width="16" height="50.4" fill="#CCC4A8"/><rect x="372" y="151.20000000000002" width="16" height="50.4" fill="#CCC4A8"/><rect x="414" y="151.20000000000002" width="16" height="50.4" fill="#CCC4A8"/><rect x="456" y="151.20000000000002" width="16" height="50.4" fill="#CCC4A8"/><rect x="498" y="151.20000000000002" width="16" height="50.4" fill="#CCC4A8"/>
      <!-- Fronton triangulaire -->
      <polygon points="110,140 340,106.4 570,140" fill="#E8E0C8"/>
      <polygon points="110,140 570,140 570,145.6 110,145.6" fill="#D8D0B8"/>
      <!-- Statue Zeus sur trône - tête -->
      <circle cx="340" cy="56" r="24" fill="#E8D090"/>
      <!-- Barbe stylisée -->
      <path d="M322,61.6 Q340,84 358,61.6" fill="#C8A060" opacity="0.8"/>
      <!-- Couronne de laurier -->
      <ellipse cx="318" cy="47.6" rx="5" ry="8" fill="#2D6B1F" transform="rotate(-30 318 47.6)"/><ellipse cx="322" cy="47.6" rx="5" ry="8" fill="#2D6B1F" transform="rotate(-20 322 47.6)"/><ellipse cx="326" cy="47.6" rx="5" ry="8" fill="#2D6B1F" transform="rotate(-10 326 47.6)"/><ellipse cx="330" cy="47.6" rx="5" ry="8" fill="#2D6B1F" transform="rotate(0 330 47.6)"/><ellipse cx="334" cy="47.6" rx="5" ry="8" fill="#2D6B1F" transform="rotate(10 334 47.6)"/><ellipse cx="338" cy="47.6" rx="5" ry="8" fill="#2D6B1F" transform="rotate(20 338 47.6)"/><ellipse cx="342" cy="47.6" rx="5" ry="8" fill="#2D6B1F" transform="rotate(30 342 47.6)"/>
      <!-- Corps Zeus -->
      <rect x="315" y="64.4" width="50" height="61.6" rx="8" fill="#D8C070"/>
      <!-- Trône -->
      <rect x="290" y="78.4" width="100" height="56" rx="4" fill="#A07830"/>
      <rect x="285" y="61.6" width="10" height="72.8" rx="3" fill="#8B6020"/>
      <rect x="385" y="61.6" width="10" height="72.8" rx="3" fill="#8B6020"/>
      <!-- Sceptre -->
      <rect x="295" y="42" width="5" height="84" rx="2" fill="#C8A030"/>
      <circle cx="297" cy="39.2" r="8" fill="#FFD700"/>
      <!-- Statue de la Victoire dans la main -->
      <circle cx="378" cy="78.4" r="7" fill="#D4C060"/>
      <rect x="376" y="78.4" width="4" height="16" fill="#C4B050"/>
      <!-- Oliviers sacrés -->
      <rect x="52" y="154" width="7" height="70" fill="#5C3A10"/>
      <ellipse cx="55" cy="145.6" rx="28" ry="22" fill="#2D6B1F"/>
      <ellipse cx="48" cy="151.20000000000002" rx="20" ry="16" fill="#256018"/>
      <rect x="622" y="159.6" width="7" height="65" fill="#5C3A10"/>
      <ellipse cx="625" cy="151.20000000000002" rx="26" ry="20" fill="#2D6B1F"/>
      <!-- Flamme olympique -->
      <rect x="22" y="182" width="6" height="35" fill="#8B6020"/>
      <ellipse cx="25" cy="173.6" rx="8" ry="12" fill="#FF6B20" opacity="0.9"/>
      <ellipse cx="25" cy="165.2" rx="5" ry="8" fill="#FFD700"/>
    
    <!-- Overlay dégradé bas -->
    <rect x="0" y="190.4" width="800" height="89.60000000000001" fill="rgba(0,0,0,0.45)"/>
    <!-- Bordure dorée -->
    <rect x="0" y="0" width="800" height="280" rx="16" fill="none" stroke="#66BB6A" stroke-width="3"/>
    <rect x="4" y="4" width="792" height="272" rx="13" fill="none" stroke="#66BB6A" stroke-width="0.8" opacity="0.4"/>
    <!-- Bandeau nom -->
    <rect x="0" y="0" width="220" height="44" rx="0" fill="rgba(0,0,0,0.65)"/>
    <rect x="0" y="0" width="220" height="3" fill="#66BB6A"/>
    <text x="16" y="20" font-family="'Georgia',serif" font-size="18" font-weight="bold" fill="#66BB6A">Olympie</text>
    <text x="16" y="36" font-family="sans-serif" font-size="10" fill="rgba(255,255,255,0.7)">La Statue · Grèce</text>
    <!-- Ressource de départ -->
    <rect x="710" y="8" width="78" height="30" rx="6" fill="rgba(0,0,0,0.65)" stroke="#66BB6A" stroke-width="1"/>
    <text x="722" y="28" font-family="Georgia,serif" font-size="11" fill="white">Départ : 🪵</text>
    <!-- Étapes -->
    
      <rect x="30" y="215" width="230" height="52" rx="6" fill="rgba(0,0,0,0.55)" stroke="#66BB6A" stroke-width="1.2"/>
      <text x="42" y="231" font-family="Georgia,serif" font-size="8" fill="#66BB6A" opacity="0.8">ÉT. 1</text>
      <circle cx="50" cy="238" r="8" fill="#8B4513" stroke="rgba(255,255,255,0.3)" stroke-width="1"/>
       <text x="50" y="242" text-anchor="middle" font-family="Georgia" font-size="7" fill="white"></text><circle cx="68" cy="238" r="8" fill="#8B4513" stroke="rgba(255,255,255,0.3)" stroke-width="1"/>
       <text x="68" y="242" text-anchor="middle" font-family="Georgia" font-size="7" fill="white"></text>
      <text x="42" y="256" font-family="Georgia,serif" font-size="10" font-weight="bold" fill="white">+3 VP</text>
      <text x="42" y="270" font-family="sans-serif" font-size="8" fill="rgba(255,255,255,0.6)">2 Bois</text>
    
      <rect x="282" y="215" width="230" height="52" rx="6" fill="rgba(0,0,0,0.55)" stroke="#66BB6A" stroke-width="1.2"/>
      <text x="294" y="231" font-family="Georgia,serif" font-size="8" fill="#66BB6A" opacity="0.8">ÉT. 2</text>
      <circle cx="302" cy="238" r="8" fill="#78909C" stroke="rgba(255,255,255,0.3)" stroke-width="1"/>
       <text x="302" y="242" text-anchor="middle" font-family="Georgia" font-size="7" fill="white"></text><circle cx="320" cy="238" r="8" fill="#78909C" stroke="rgba(255,255,255,0.3)" stroke-width="1"/>
       <text x="320" y="242" text-anchor="middle" font-family="Georgia" font-size="7" fill="white"></text>
      <text x="294" y="256" font-family="Georgia,serif" font-size="10" font-weight="bold" fill="white">Construction gratuite</text>
      <text x="294" y="270" font-family="sans-serif" font-size="8" fill="rgba(255,255,255,0.6)">2 Pierre</text>
    
      <rect x="534" y="215" width="230" height="52" rx="6" fill="rgba(0,0,0,0.55)" stroke="#66BB6A" stroke-width="1.2"/>
      <text x="546" y="231" font-family="Georgia,serif" font-size="8" fill="#66BB6A" opacity="0.8">ÉT. 3</text>
      <circle cx="554" cy="238" r="8" fill="#607D8B" stroke="rgba(255,255,255,0.3)" stroke-width="1"/>
       <text x="554" y="242" text-anchor="middle" font-family="Georgia" font-size="7" fill="white"></text><circle cx="572" cy="238" r="8" fill="#607D8B" stroke="rgba(255,255,255,0.3)" stroke-width="1"/>
       <text x="572" y="242" text-anchor="middle" font-family="Georgia" font-size="7" fill="white"></text>
      <text x="546" y="256" font-family="Georgia,serif" font-size="10" font-weight="bold" fill="white">+7 VP</text>
      <text x="546" y="270" font-family="sans-serif" font-size="8" fill="rgba(255,255,255,0.6)">2 Minerai</text>
    
  </g>
</svg>