<svg xmlns="http://www.w3.org/2000/svg" viewBox="0 0 800 280" width="800" height="280">
  <defs>
    <clipPath id="boardClip">
      <rect x="0" y="0" width="800" height="280" rx="16"/>
    </clipPath>
  </defs>
  <g clip-path="url(#boardClip)">
    
      <!-- Ciel chaud -->
      <rect x="0" y="0" width="800" height="140" fill="#1a0d00"/>
      <rect x="0" y="70" width="800" height="70" fill="#2d1500" opacity="0.8"/>
      <!-- Étoiles -->
      <circle cx="15" cy="6" r="1.5" fill="#FFD080" opacity="0.3"/><circle cx="34" cy="39" r="1.5" fill="#FFD080" opacity="0.44999999999999996"/><circle cx="53" cy="24" r="1.5" fill="#FFD080" opacity="0.6"/><circle cx="72" cy="9" r="1.5" fill="#FFD080" opacity="0.75"/><circle cx="91" cy="42" r="1.5" fill="#FFD080" opacity="0.3"/><circle cx="110" cy="27" r="1.5" fill="#FFD080" opacity="0.44999999999999996"/><circle cx="129" cy="12" r="1.5" fill="#FFD080" opacity="0.6"/><circle cx="148" cy="45" r="1.5" fill="#FFD080" opacity="0.75"/><circle cx="167" cy="30" r="1.5" fill="#FFD080" opacity="0.3"/><circle cx="186" cy="15" r="1.5" fill="#FFD080" opacity="0.44999999999999996"/><circle cx="205" cy="48" r="1.5" fill="#FFD080" opacity="0.6"/><circle cx="224" cy="33" r="1.5" fill="#FFD080" opacity="0.75"/><circle cx="243" cy="18" r="1.5" fill="#FFD080" opacity="0.3"/><circle cx="262" cy="51" r="1.5" fill="#FFD080" opacity="0.44999999999999996"/><circle cx="281" cy="36" r="1.5" fill="#FFD080" opacity="0.6"/><circle cx="300" cy="21" r="1.5" fill="#FFD080" opacity="0.75"/><circle cx="319" cy="6" r="1.5" fill="#FFD080" opacity="0.3"/><circle cx="338" cy="39" r="1.5" fill="#FFD080" opacity="0.44999999999999996"/><circle cx="357" cy="24" r="1.5" fill="#FFD080" opacity="0.6"/><circle cx="376" cy="9" r="1.5" fill="#FFD080" opacity="0.75"/><circle cx="395" cy="42" r="1.5" fill="#FFD080" opacity="0.3"/><circle cx="414" cy="27" r="1.5" fill="#FFD080" opacity="0.44999999999999996"/><circle cx="433" cy="12" r="1.5" fill="#FFD080" opacity="0.6"/><circle cx="452" cy="45" r="1.5" fill="#FFD080" opacity="0.75"/><circle cx="471" cy="30" r="1.5" fill="#FFD080" opacity="0.3"/><circle cx="490" cy="15" r="1.5" fill="#FFD080" opacity="0.44999999999999996"/><circle cx="509" cy="48" r="1.5" fill="#FFD080" opacity="0.6"/><circle cx="528" cy="33" r="1.5" fill="#FFD080" opacity="0.75"/><circle cx="547" cy="18" r="1.5" fill="#FFD080" opacity="0.3"/><circle cx="566" cy="51" r="1.5" fill="#FFD080" opacity="0.44999999999999996"/><circle cx="585" cy="36" r="1.5" fill="#FFD080" opacity="0.6"/><circle cx="604" cy="21" r="1.5" fill="#FFD080" opacity="0.75"/><circle cx="623" cy="6" r="1.5" fill="#FFD080" opacity="0.3"/><circle cx="642" cy="39" r="1.5" fill="#FFD080" opacity="0.44999999999999996"/><circle cx="661" cy="24" r="1.5" fill="#FFD080" opacity="0.6"/>
      <!-- Lune croissant -->
      <circle cx="120" cy="50" r="25" fill="#FFE080" opacity="0.85"/>
      <circle cx="110" cy="42" r="20" fill="#1a0d00"/>
      <!-- Fleuve Euphrate -->
      <rect x="0" y="218.4" width="800" height="61.6" fill="#1a3a5a"/>
      <!-- Reflets sur l'eau -->
      <line x1="30" y1="229.6" x2="60" y2="229.6" stroke="#4a7a9a" stroke-width="2" opacity="0.4"/><line x1="110" y1="229.6" x2="140" y2="229.6" stroke="#4a7a9a" stroke-width="2" opacity="0.4"/><line x1="190" y1="229.6" x2="220" y2="229.6" stroke="#4a7a9a" stroke-width="2" opacity="0.4"/><line x1="270" y1="229.6" x2="300" y2="229.6" stroke="#4a7a9a" stroke-width="2" opacity="0.4"/><line x1="350" y1="229.6" x2="380" y2="229.6" stroke="#4a7a9a" stroke-width="2" opacity="0.4"/><line x1="430" y1="229.6" x2="460" y2="229.6" stroke="#4a7a9a" stroke-width="2" opacity="0.4"/><line x1="510" y1="229.6" x2="540" y2="229.6" stroke="#4a7a9a" stroke-width="2" opacity="0.4"/><line x1="590" y1="229.6" x2="620" y2="229.6" stroke="#4a7a9a" stroke-width="2" opacity="0.4"/>
      <!-- Terrain -->
      <rect x="0" y="196" width="800" height="28" fill="#5C3A18"/>
      <!-- Ziggourat base large -->
      <rect x="130" y="162.39999999999998" width="420" height="55" fill="#C87832"/>
      <!-- Ziggourat niveau 2 -->
      <rect x="165" y="128.8" width="350" height="48" fill="#B86C28"/>
      <!-- Ziggourat niveau 3 -->
      <rect x="200" y="98" width="280" height="42" fill="#A86020"/>
      <!-- Ziggourat sommet -->
      <rect x="260" y="72.8" width="160" height="35" fill="#985818"/>
      <!-- Temple sommet -->
      <rect x="295" y="50.4" width="90" height="30" fill="#C87832"/>
      <rect x="300" y="39.2" width="10" height="34" fill="#B87030"/><rect x="322" y="39.2" width="10" height="34" fill="#B87030"/><rect x="344" y="39.2" width="10" height="34" fill="#B87030"/><rect x="366" y="39.2" width="10" height="34" fill="#B87030"/>
      <polygon points="290,39.2 390,39.2 390,25.2 340,19.6 290,25.2" fill="#C87832"/>
      <!-- Jardins suspendus — végétation en cascade -->
      <ellipse cx="200" cy="162.39999999999998" rx="40" ry="20" fill="#2D6B1F"/>
      <ellipse cx="240" cy="168" rx="30" ry="16" fill="#3A7A28"/>
      <ellipse cx="175" cy="134.4" rx="35" ry="18" fill="#256018"/>
      <ellipse cx="490" cy="162.39999999999998" rx="40" ry="20" fill="#2D6B1F"/>
      <ellipse cx="520" cy="131.6" rx="38" ry="16" fill="#3A7A28"/>
      <ellipse cx="460" cy="168" rx="28" ry="14" fill="#256018"/>
      <!-- Jardins niveaux 2 -->
      <ellipse cx="210" cy="100.8" rx="32" ry="16" fill="#2D6B1F"/>
      <ellipse cx="460" cy="100.8" rx="32" ry="16" fill="#3A7A28"/>
      <!-- Palmiers le long du fleuve -->
      <rect x="60" y="162.39999999999998" width="6" height="60" fill="#5C3A10"/>
      <ellipse cx="63" cy="156.8" rx="22" ry="16" fill="#2D5A1B"/>
      <rect x="610" y="168" width="6" height="55" fill="#5C3A10"/>
      <ellipse cx="613" cy="162.39999999999998" rx="20" ry="14" fill="#2D5A1B"/>
      <!-- Portes de Babylone stylisées -->
      <rect x="290" y="190.4" width="100" height="48" fill="#B87030"/>
      <path d="M290,190.4 Q340,173.6 390,190.4" fill="#C88040" stroke="#A87028" stroke-width="1.5"/>
      <rect x="318" y="201.6" width="44" height="44" fill="#1a3a5a"/>
      <!-- Lions stylisés -->
      <ellipse cx="275" cy="224" rx="20" ry="12" fill="#C87030"/>
      <circle cx="260" cy="212.8" r="10" fill="#D48040"/>
      <ellipse cx="415" cy="224" rx="20" ry="12" fill="#C87030"/>
      <circle cx="430" cy="212.8" r="10" fill="#D48040"/>
    
    <!-- Overlay dégradé bas -->
    <rect x="0" y="190.4" width="800" height="89.60000000000001" fill="rgba(0,0,0,0.45)"/>
    <!-- Bordure dorée -->
    <rect x="0" y="0" width="800" height="280" rx="16" fill="none" stroke="#FF7043" stroke-width="3"/>
    <rect x="4" y="4" width="792" height="272" rx="13" fill="none" stroke="#FF7043" stroke-width="0.8" opacity="0.4"/>
    <!-- Bandeau nom -->
    <rect x="0" y="0" width="220" height="44" rx="0" fill="rgba(0,0,0,0.65)"/>
    <rect x="0" y="0" width="220" height="3" fill="#FF7043"/>
    <text x="16" y="20" font-family="'Georgia',serif" font-size="18" font-weight="bold" fill="#FF7043">Babylone</text>
    <text x="16" y="36" font-family="sans-serif" font-size="10" fill="rgba(255,255,255,0.7)">Les Jardins · Mésopotamie</text>
    <!-- Ressource de départ -->
    <rect x="710" y="8" width="78" height="30" rx="6" fill="rgba(0,0,0,0.65)" stroke="#FF7043" stroke-width="1"/>
    <text x="722" y="28" font-family="Georgia,serif" font-size="11" fill="white">Départ : 🧱</text>
    <!-- Étapes -->
    
      <rect x="30" y="215" width="230" height="52" rx="6" fill="rgba(0,0,0,0.55)" stroke="#FF7043" stroke-width="1.2"/>
      <text x="42" y="231" font-family="Georgia,serif" font-size="8" fill="#FF7043" opacity="0.8">ÉT. 1</text>
      <circle cx="50" cy="238" r="8" fill="#D2691E" stroke="rgba(255,255,255,0.3)" stroke-width="1"/>
       <text x="50" y="242" text-anchor="middle" font-family="Georgia" font-size="7" fill="white"></text><circle cx="68" cy="238" r="8" fill="#D2691E" stroke="rgba(255,255,255,0.3)" stroke-width="1"/>
       <text x="68" y="242" text-anchor="middle" font-family="Georgia" font-size="7" fill="white"></text>
      <text x="42" y="256" font-family="Georgia,serif" font-size="10" font-weight="bold" fill="white">+3 VP</text>
      <text x="42" y="270" font-family="sans-serif" font-size="8" fill="rgba(255,255,255,0.6)">2 Argile</text>
    
      <rect x="282" y="215" width="230" height="52" rx="6" fill="rgba(0,0,0,0.55)" stroke="#FF7043" stroke-width="1.2"/>
      <text x="294" y="231" font-family="Georgia,serif" font-size="8" fill="#FF7043" opacity="0.8">ÉT. 2</text>
      <circle cx="302" cy="238" r="8" fill="#8B4513" stroke="rgba(255,255,255,0.3)" stroke-width="1"/>
       <text x="302" y="242" text-anchor="middle" font-family="Georgia" font-size="7" fill="white"></text><circle cx="320" cy="238" r="8" fill="#8B4513" stroke="rgba(255,255,255,0.3)" stroke-width="1"/>
       <text x="320" y="242" text-anchor="middle" font-family="Georgia" font-size="7" fill="white"></text><circle cx="338" cy="238" r="8" fill="#8B4513" stroke="rgba(255,255,255,0.3)" stroke-width="1"/>
       <text x="338" y="242" text-anchor="middle" font-family="Georgia" font-size="7" fill="white"></text>
      <text x="294" y="256" font-family="Georgia,serif" font-size="10" font-weight="bold" fill="white">Science au choix</text>
      <text x="294" y="270" font-family="sans-serif" font-size="8" fill="rgba(255,255,255,0.6)">3 Bois</text>
    
      <rect x="534" y="215" width="230" height="52" rx="6" fill="rgba(0,0,0,0.55)" stroke="#FF7043" stroke-width="1.2"/>
      <text x="546" y="231" font-family="Georgia,serif" font-size="8" fill="#FF7043" opacity="0.8">ÉT. 3</text>
      <circle cx="554" cy="238" r="8" fill="#D2691E" stroke="rgba(255,255,255,0.3)" stroke-width="1"/>
       <text x="554" y="242" text-anchor="middle" font-family="Georgia" font-size="7" fill="white"></text><circle cx="572" cy="238" r="8" fill="#D2691E" stroke="rgba(255,255,255,0.3)" stroke-width="1"/>
       <text x="572" y="242" text-anchor="middle" font-family="Georgia" font-size="7" fill="white"></text><circle cx="590" cy="238" r="8" fill="#D2691E" stroke="rgba(255,255,255,0.3)" stroke-width="1"/>
       <text x="590" y="242" text-anchor="middle" font-family="Georgia" font-size="7" fill="white"></text><circle cx="608" cy="238" r="8" fill="#D2691E" stroke="rgba(255,255,255,0.3)" stroke-width="1"/>
       <text x="608" y="242" text-anchor="middle" font-family="Georgia" font-size="7" fill="white"></text>
      <text x="546" y="256" font-family="Georgia,serif" font-size="10" font-weight="bold" fill="white">Science au choix</text>
      <text x="546" y="270" font-family="sans-serif" font-size="8" fill="rgba(255,255,255,0.6)">4 Argile</text>
    
  </g>
</svg>