<svg xmlns="http://www.w3.org/2000/svg" viewBox="0 0 800 280" width="800" height="280">
  <defs>
    <clipPath id="boardClip">
      <rect x="0" y="0" width="800" height="280" rx="16"/>
    </clipPath>
  </defs>
  <g clip-path="url(#boardClip)">
    
      <!-- Ciel étoilé -->
      <rect x="0" y="0" width="800" height="154" fill="#1a0a2e"/>
      <rect x="0" y="84" width="800" height="70" fill="#3d1a0a" opacity="0.7"/>
      <!-- Étoiles -->
      <circle cx="30" cy="10" r="2" fill="white" opacity="0.4"/><circle cx="47" cy="47" r="1" fill="white" opacity="0.6000000000000001"/><circle cx="64" cy="34" r="1" fill="white" opacity="0.8"/><circle cx="81" cy="21" r="2" fill="white" opacity="0.4"/><circle cx="98" cy="58" r="1" fill="white" opacity="0.6000000000000001"/><circle cx="115" cy="45" r="1" fill="white" opacity="0.8"/><circle cx="132" cy="32" r="2" fill="white" opacity="0.4"/><circle cx="149" cy="19" r="1" fill="white" opacity="0.6000000000000001"/><circle cx="166" cy="56" r="1" fill="white" opacity="0.8"/><circle cx="183" cy="43" r="2" fill="white" opacity="0.4"/><circle cx="200" cy="30" r="1" fill="white" opacity="0.6000000000000001"/><circle cx="217" cy="17" r="1" fill="white" opacity="0.8"/><circle cx="234" cy="54" r="2" fill="white" opacity="0.4"/><circle cx="251" cy="41" r="1" fill="white" opacity="0.6000000000000001"/><circle cx="268" cy="28" r="1" fill="white" opacity="0.8"/><circle cx="285" cy="15" r="2" fill="white" opacity="0.4"/><circle cx="302" cy="52" r="1" fill="white" opacity="0.6000000000000001"/><circle cx="319" cy="39" r="1" fill="white" opacity="0.8"/><circle cx="336" cy="26" r="2" fill="white" opacity="0.4"/><circle cx="353" cy="13" r="1" fill="white" opacity="0.6000000000000001"/><circle cx="370" cy="50" r="1" fill="white" opacity="0.8"/><circle cx="387" cy="37" r="2" fill="white" opacity="0.4"/><circle cx="404" cy="24" r="1" fill="white" opacity="0.6000000000000001"/><circle cx="421" cy="11" r="1" fill="white" opacity="0.8"/><circle cx="438" cy="48" r="2" fill="white" opacity="0.4"/><circle cx="455" cy="35" r="1" fill="white" opacity="0.6000000000000001"/><circle cx="472" cy="22" r="1" fill="white" opacity="0.8"/><circle cx="489" cy="59" r="2" fill="white" opacity="0.4"/><circle cx="506" cy="46" r="1" fill="white" opacity="0.6000000000000001"/><circle cx="523" cy="33" r="1" fill="white" opacity="0.8"/><circle cx="540" cy="20" r="2" fill="white" opacity="0.4"/><circle cx="557" cy="57" r="1" fill="white" opacity="0.6000000000000001"/><circle cx="574" cy="44" r="1" fill="white" opacity="0.8"/><circle cx="591" cy="31" r="2" fill="white" opacity="0.4"/><circle cx="608" cy="18" r="1" fill="white" opacity="0.6000000000000001"/><circle cx="625" cy="55" r="1" fill="white" opacity="0.8"/><circle cx="642" cy="42" r="2" fill="white" opacity="0.4"/><circle cx="659" cy="29" r="1" fill="white" opacity="0.6000000000000001"/><circle cx="676" cy="16" r="1" fill="white" opacity="0.8"/><circle cx="693" cy="53" r="2" fill="white" opacity="0.4"/>
      <!-- Lune -->
      <circle cx="580" cy="55" r="28" fill="#FFF8DC" opacity="0.9"/>
      <circle cx="590" cy="45" r="22" fill="#1a0a2e"/>
      <!-- Dunes de sable -->
      <ellipse cx="0" cy="201.6" rx="200" ry="60" fill="#8B6914"/>
      <ellipse cx="340" cy="196" rx="260" ry="50" fill="#A07820"/>
      <ellipse cx="680" cy="204.4" rx="200" ry="55" fill="#8B6914"/>
      <!-- Sol désert -->
      <rect x="0" y="204.4" width="800" height="75.60000000000001" fill="#C8A040"/>
      <rect x="0" y="218.4" width="800" height="61.6" fill="#B8922A"/>
      <!-- Pyramide principale grande -->
      <polygon points="340,61.6 170,207.2 510,207.2" fill="#C8952A"/>
      <polygon points="340,61.6 170,207.2 340,207.2" fill="#A07020"/>
      <polygon points="340,61.6 340,72.8 510,207.2 510,207.2" fill="#E0A830"/>
      <!-- Lignes de pierre pyramide -->
      <line x1="319.6" y1="79.072" x2="360.4" y2="79.072" stroke="#B08020" stroke-width="1" opacity="0.5"/><line x1="300.9" y1="95.088" x2="379.1" y2="95.088" stroke="#B08020" stroke-width="1" opacity="0.5"/><line x1="282.2" y1="111.10399999999998" x2="397.8" y2="111.10399999999998" stroke="#B08020" stroke-width="1" opacity="0.5"/><line x1="263.5" y1="127.12" x2="416.5" y2="127.12" stroke="#B08020" stroke-width="1" opacity="0.5"/><line x1="244.8" y1="143.136" x2="435.2" y2="143.136" stroke="#B08020" stroke-width="1" opacity="0.5"/><line x1="226.1" y1="159.15200000000002" x2="453.9" y2="159.15200000000002" stroke="#B08020" stroke-width="1" opacity="0.5"/><line x1="207.4" y1="175.168" x2="472.6" y2="175.168" stroke="#B08020" stroke-width="1" opacity="0.5"/><line x1="188.7" y1="191.184" x2="491.3" y2="191.184" stroke="#B08020" stroke-width="1" opacity="0.5"/>
      <!-- Sommet doré -->
      <polygon points="340,61.6 332,72.8 348,72.8" fill="#FFD700"/>
      <!-- Petites pyramides -->
      <polygon points="135,126 75,207.2 195,207.2" fill="#B88020"/>
      <polygon points="135,126 75,207.2 135,207.2" fill="#907018"/>
      <polygon points="550,134.4 500,207.2 600,207.2" fill="#B88020"/>
      <polygon points="550,134.4 500,207.2 550,207.2" fill="#907018"/>
      <!-- Sphinx stylisé -->
      <rect x="220" y="184.8" width="80" height="30" rx="4" fill="#C8A850"/>
      <ellipse cx="220" cy="179.20000000000002" rx="18" ry="22" fill="#D4B060"/>
      <!-- Palmiers -->
      <rect x="58" y="173.6" width="5" height="50" fill="#5C3A10"/>
      <ellipse cx="60" cy="168" rx="18" ry="14" fill="#2D5A1B"/>
      <rect x="618" y="182" width="5" height="45" fill="#5C3A10"/>
      <ellipse cx="620" cy="176.4" rx="16" ry="12" fill="#2D5A1B"/>
    
    <!-- Overlay dégradé bas -->
    <rect x="0" y="190.4" width="800" height="89.60000000000001" fill="rgba(0,0,0,0.45)"/>
    <!-- Bordure dorée -->
    <rect x="0" y="0" width="800" height="280" rx="16" fill="none" stroke="#D4AC0D" stroke-width="3"/>
    <rect x="4" y="4" width="792" height="272" rx="13" fill="none" stroke="#D4AC0D" stroke-width="0.8" opacity="0.4"/>
    <!-- Bandeau nom -->
    <rect x="0" y="0" width="220" height="44" rx="0" fill="rgba(0,0,0,0.65)"/>
    <rect x="0" y="0" width="220" height="3" fill="#D4AC0D"/>
    <text x="16" y="20" font-family="'Georgia',serif" font-size="18" font-weight="bold" fill="#D4AC0D">Gizeh</text>
    <text x="16" y="36" font-family="sans-serif" font-size="10" fill="rgba(255,255,255,0.7)">Les Pyramides · Égypte</text>
    <!-- Ressource de départ -->
    <rect x="710" y="8" width="78" height="30" rx="6" fill="rgba(0,0,0,0.65)" stroke="#D4AC0D" stroke-width="1"/>
    <text x="722" y="28" font-family="Georgia,serif" font-size="11" fill="white">Départ : 🪨</text>
    <!-- Étapes -->
    
      <rect x="30" y="215" width="230" height="52" rx="6" fill="rgba(0,0,0,0.55)" stroke="#D4AC0D" stroke-width="1.2"/>
      <text x="42" y="231" font-family="Georgia,serif" font-size="8" fill="#D4AC0D" opacity="0.8">ÉT. 1</text>
      <circle cx="50" cy="238" r="8" fill="#78909C" stroke="rgba(255,255,255,0.3)" stroke-width="1"/>
       <text x="50" y="242" text-anchor="middle" font-family="Georgia" font-size="7" fill="white"></text><circle cx="68" cy="238" r="8" fill="#78909C" stroke="rgba(255,255,255,0.3)" stroke-width="1"/>
       <text x="68" y="242" text-anchor="middle" font-family="Georgia" font-size="7" fill="white"></text>
      <text x="42" y="256" font-family="Georgia,serif" font-size="10" font-weight="bold" fill="white">+3 VP</text>
      <text x="42" y="270" font-family="sans-serif" font-size="8" fill="rgba(255,255,255,0.6)">2 Pierre</text>
    
      <rect x="282" y="215" width="230" height="52" rx="6" fill="rgba(0,0,0,0.55)" stroke="#D4AC0D" stroke-width="1.2"/>
      <text x="294" y="231" font-family="Georgia,serif" font-size="8" fill="#D4AC0D" opacity="0.8">ÉT. 2</text>
      <circle cx="302" cy="238" r="8" fill="#8B4513" stroke="rgba(255,255,255,0.3)" stroke-width="1"/>
       <text x="302" y="242" text-anchor="middle" font-family="Georgia" font-size="7" fill="white"></text><circle cx="320" cy="238" r="8" fill="#8B4513" stroke="rgba(255,255,255,0.3)" stroke-width="1"/>
       <text x="320" y="242" text-anchor="middle" font-family="Georgia" font-size="7" fill="white"></text><circle cx="338" cy="238" r="8" fill="#8B4513" stroke="rgba(255,255,255,0.3)" stroke-width="1"/>
       <text x="338" y="242" text-anchor="middle" font-family="Georgia" font-size="7" fill="white"></text>
      <text x="294" y="256" font-family="Georgia,serif" font-size="10" font-weight="bold" fill="white">+5 VP</text>
      <text x="294" y="270" font-family="sans-serif" font-size="8" fill="rgba(255,255,255,0.6)">3 Bois</text>
    
      <rect x="534" y="215" width="230" height="52" rx="6" fill="rgba(0,0,0,0.55)" stroke="#D4AC0D" stroke-width="1.2"/>
      <text x="546" y="231" font-family="Georgia,serif" font-size="8" fill="#D4AC0D" opacity="0.8">ÉT. 3</text>
      <circle cx="554" cy="238" r="8" fill="#78909C" stroke="rgba(255,255,255,0.3)" stroke-width="1"/>
       <text x="554" y="242" text-anchor="middle" font-family="Georgia" font-size="7" fill="white"></text><circle cx="572" cy="238" r="8" fill="#78909C" stroke="rgba(255,255,255,0.3)" stroke-width="1"/>
       <text x="572" y="242" text-anchor="middle" font-family="Georgia" font-size="7" fill="white"></text><circle cx="590" cy="238" r="8" fill="#78909C" stroke="rgba(255,255,255,0.3)" stroke-width="1"/>
       <text x="590" y="242" text-anchor="middle" font-family="Georgia" font-size="7" fill="white"></text><circle cx="608" cy="238" r="8" fill="#78909C" stroke="rgba(255,255,255,0.3)" stroke-width="1"/>
       <text x="608" y="242" text-anchor="middle" font-family="Georgia" font-size="7" fill="white"></text>
      <text x="546" y="256" font-family="Georgia,serif" font-size="10" font-weight="bold" fill="white">+7 VP</text>
      <text x="546" y="270" font-family="sans-serif" font-size="8" fill="rgba(255,255,255,0.6)">4 Pierre</text>
    
  </g>
</svg>