<svg xmlns="http://www.w3.org/2000/svg" viewBox="0 0 800 280" width="800" height="280">
  <defs>
    <clipPath id="boardClip">
      <rect x="0" y="0" width="800" height="280" rx="16"/>
    </clipPath>
  </defs>
  <g clip-path="url(#boardClip)">
    
      <!-- Ciel violet nuit -->
      <rect x="0" y="0" width="800" height="154" fill="#120a22"/>
      <rect x="0" y="84" width="800" height="70" fill="#0d0518" opacity="0.8"/>
      <!-- Nébuleuse / Voie lactée -->
      <circle cx="5" cy="3" r="2" fill="#CC88FF" opacity="0.15"/><circle cx="16" cy="27" r="1" fill="white" opacity="0.22999999999999998"/><circle cx="27" cy="53" r="1" fill="white" opacity="0.31"/><circle cx="38" cy="26" r="1" fill="#CC88FF" opacity="0.39"/><circle cx="49" cy="56" r="1" fill="white" opacity="0.47"/><circle cx="60" cy="33" r="1" fill="white" opacity="0.55"/><circle cx="71" cy="12" r="1" fill="#CC88FF" opacity="0.63"/><circle cx="82" cy="48" r="2" fill="white" opacity="0.15"/><circle cx="93" cy="31" r="1" fill="white" opacity="0.22999999999999998"/><circle cx="104" cy="16" r="1" fill="#CC88FF" opacity="0.31"/><circle cx="115" cy="3" r="1" fill="white" opacity="0.39"/><circle cx="126" cy="47" r="1" fill="white" opacity="0.47"/><circle cx="137" cy="38" r="1" fill="#CC88FF" opacity="0.55"/><circle cx="148" cy="31" r="1" fill="white" opacity="0.63"/><circle cx="159" cy="26" r="2" fill="white" opacity="0.15"/><circle cx="170" cy="23" r="1" fill="#CC88FF" opacity="0.22999999999999998"/><circle cx="181" cy="22" r="1" fill="white" opacity="0.31"/><circle cx="192" cy="23" r="1" fill="white" opacity="0.39"/><circle cx="203" cy="26" r="1" fill="#CC88FF" opacity="0.47"/><circle cx="214" cy="31" r="1" fill="white" opacity="0.55"/><circle cx="225" cy="38" r="1" fill="white" opacity="0.63"/><circle cx="236" cy="47" r="2" fill="#CC88FF" opacity="0.15"/><circle cx="247" cy="3" r="1" fill="white" opacity="0.22999999999999998"/><circle cx="258" cy="16" r="1" fill="white" opacity="0.31"/><circle cx="269" cy="31" r="1" fill="#CC88FF" opacity="0.39"/><circle cx="280" cy="48" r="1" fill="white" opacity="0.47"/><circle cx="291" cy="12" r="1" fill="white" opacity="0.55"/><circle cx="302" cy="33" r="1" fill="#CC88FF" opacity="0.63"/><circle cx="313" cy="56" r="2" fill="white" opacity="0.15"/><circle cx="324" cy="26" r="1" fill="white" opacity="0.22999999999999998"/><circle cx="335" cy="53" r="1" fill="#CC88FF" opacity="0.31"/><circle cx="346" cy="27" r="1" fill="white" opacity="0.39"/><circle cx="357" cy="3" r="1" fill="white" opacity="0.47"/><circle cx="368" cy="36" r="1" fill="#CC88FF" opacity="0.55"/><circle cx="379" cy="16" r="1" fill="white" opacity="0.63"/><circle cx="390" cy="53" r="2" fill="white" opacity="0.15"/><circle cx="401" cy="37" r="1" fill="#CC88FF" opacity="0.22999999999999998"/><circle cx="412" cy="23" r="1" fill="white" opacity="0.31"/><circle cx="423" cy="11" r="1" fill="white" opacity="0.39"/><circle cx="434" cy="56" r="1" fill="#CC88FF" opacity="0.47"/><circle cx="445" cy="48" r="1" fill="white" opacity="0.55"/><circle cx="456" cy="42" r="1" fill="white" opacity="0.63"/><circle cx="467" cy="38" r="2" fill="#CC88FF" opacity="0.15"/><circle cx="478" cy="36" r="1" fill="white" opacity="0.22999999999999998"/><circle cx="489" cy="36" r="1" fill="white" opacity="0.31"/><circle cx="500" cy="38" r="1" fill="#CC88FF" opacity="0.39"/><circle cx="511" cy="42" r="1" fill="white" opacity="0.47"/><circle cx="522" cy="48" r="1" fill="white" opacity="0.55"/><circle cx="533" cy="56" r="1" fill="#CC88FF" opacity="0.63"/><circle cx="544" cy="11" r="2" fill="white" opacity="0.15"/><circle cx="555" cy="23" r="1" fill="white" opacity="0.22999999999999998"/><circle cx="566" cy="37" r="1" fill="#CC88FF" opacity="0.31"/><circle cx="577" cy="53" r="1" fill="white" opacity="0.39"/><circle cx="588" cy="16" r="1" fill="white" opacity="0.47"/><circle cx="599" cy="36" r="1" fill="#CC88FF" opacity="0.55"/><circle cx="610" cy="3" r="1" fill="white" opacity="0.63"/><circle cx="621" cy="27" r="2" fill="white" opacity="0.15"/><circle cx="632" cy="53" r="1" fill="#CC88FF" opacity="0.22999999999999998"/><circle cx="643" cy="26" r="1" fill="white" opacity="0.31"/><circle cx="654" cy="56" r="1" fill="white" opacity="0.39"/>
      <!-- Mer d'Égée -->
      <rect x="0" y="154" width="800" height="126" fill="#0d1e3a"/>
      <rect x="0" y="173.6" width="800" height="106.4" fill="#0a1830"/>
      <!-- Colline -->
      <ellipse cx="340" cy="218.4" rx="300" ry="70" fill="#2a2018"/>
      <rect x="40" y="210" width="600" height="70" fill="#352818"/>
      <!-- Mausolée base -->
      <rect x="160" y="154" width="360" height="55" fill="#C8B890"/>
      <!-- Escaliers -->
      <rect x="160" y="154" width="360" height="12" fill="#C0B088"/><rect x="168" y="159" width="344" height="12" fill="#B8A880"/><rect x="176" y="164" width="328" height="12" fill="#C0B088"/><rect x="184" y="169" width="312" height="12" fill="#B8A880"/>
      <!-- Colonnade -->
      <rect x="180" y="112" width="320" height="44.800000000000004" fill="#D4C8A8"/>
      <rect x="188" y="112" width="12" height="44.800000000000004" fill="#C4B898"/><rect x="222" y="112" width="12" height="44.800000000000004" fill="#C4B898"/><rect x="256" y="112" width="12" height="44.800000000000004" fill="#C4B898"/><rect x="290" y="112" width="12" height="44.800000000000004" fill="#C4B898"/><rect x="324" y="112" width="12" height="44.800000000000004" fill="#C4B898"/><rect x="358" y="112" width="12" height="44.800000000000004" fill="#C4B898"/><rect x="392" y="112" width="12" height="44.800000000000004" fill="#C4B898"/><rect x="426" y="112" width="12" height="44.800000000000004" fill="#C4B898"/><rect x="460" y="112" width="12" height="44.800000000000004" fill="#C4B898"/>
      <!-- Entablement -->
      <rect x="175" y="106.4" width="330" height="14" fill="#D8CDB0"/>
      <!-- Pyramide du sommet -->
      <polygon points="180,106.4 340,56 500,106.4" fill="#C8B890"/>
      <polygon points="180,106.4 340,56 340,106.4" fill="#B8A880"/>
      <!-- Quadrige (char à 4 chevaux) au sommet -->
      <ellipse cx="340" cy="56" rx="30" ry="12" fill="#D4B850"/>
      <!-- Chevaux stylisés -->
      <ellipse cx="318" cy="44.800000000000004" rx="5" ry="9" fill="#C8A840" transform="rotate(-15 318 44.800000000000004)"/>
        <circle cx="315" cy="33.6" r="5" fill="#D4B850"/><ellipse cx="332" cy="44.800000000000004" rx="5" ry="9" fill="#C8A840" transform="rotate(-15 332 44.800000000000004)"/>
        <circle cx="329" cy="33.6" r="5" fill="#D4B850"/><ellipse cx="346" cy="44.800000000000004" rx="5" ry="9" fill="#C8A840" transform="rotate(-15 346 44.800000000000004)"/>
        <circle cx="343" cy="33.6" r="5" fill="#D4B850"/><ellipse cx="360" cy="44.800000000000004" rx="5" ry="9" fill="#C8A840" transform="rotate(-15 360 44.800000000000004)"/>
        <circle cx="357" cy="33.6" r="5" fill="#D4B850"/>
      <!-- Statue Mausole -->
      <rect x="326" y="56" width="28" height="38" rx="5" fill="#C4B480"/>
      <circle cx="340" cy="50.4" r="12" fill="#D4C490"/>
      <!-- Décoration frise -->
      <rect x="180" y="106.4" width="14" height="14" rx="2" fill="#C4B470"/><rect x="213" y="106.4" width="14" height="14" rx="2" fill="#B8A860"/><rect x="246" y="106.4" width="14" height="14" rx="2" fill="#C4B470"/><rect x="279" y="106.4" width="14" height="14" rx="2" fill="#B8A860"/><rect x="312" y="106.4" width="14" height="14" rx="2" fill="#C4B470"/><rect x="345" y="106.4" width="14" height="14" rx="2" fill="#B8A860"/><rect x="378" y="106.4" width="14" height="14" rx="2" fill="#C4B470"/><rect x="411" y="106.4" width="14" height="14" rx="2" fill="#B8A860"/><rect x="444" y="106.4" width="14" height="14" rx="2" fill="#C4B470"/><rect x="477" y="106.4" width="14" height="14" rx="2" fill="#B8A860"/>
      <!-- Cyprès funèbres -->
      <polygon points="80,207.2 95,134.4 110,207.2" fill="#1a3a1a"/>
      <polygon points="570,207.2 585,140 600,207.2" fill="#1a3a1a"/>
    
    <!-- Overlay dégradé bas -->
    <rect x="0" y="190.4" width="800" height="89.60000000000001" fill="rgba(0,0,0,0.45)"/>
    <!-- Bordure dorée -->
    <rect x="0" y="0" width="800" height="280" rx="16" fill="none" stroke="#CE93D8" stroke-width="3"/>
    <rect x="4" y="4" width="792" height="272" rx="13" fill="none" stroke="#CE93D8" stroke-width="0.8" opacity="0.4"/>
    <!-- Bandeau nom -->
    <rect x="0" y="0" width="220" height="44" rx="0" fill="rgba(0,0,0,0.65)"/>
    <rect x="0" y="0" width="220" height="3" fill="#CE93D8"/>
    <text x="16" y="20" font-family="'Georgia',serif" font-size="18" font-weight="bold" fill="#CE93D8">Halicarnasse</text>
    <text x="16" y="36" font-family="sans-serif" font-size="10" fill="rgba(255,255,255,0.7)">Le Mausolée · Anatolie</text>
    <!-- Ressource de départ -->
    <rect x="710" y="8" width="78" height="30" rx="6" fill="rgba(0,0,0,0.65)" stroke="#CE93D8" stroke-width="1"/>
    <text x="722" y="28" font-family="Georgia,serif" font-size="11" fill="white">Départ : ❋</text>
    <!-- Étapes -->
    
      <rect x="30" y="215" width="230" height="52" rx="6" fill="rgba(0,0,0,0.55)" stroke="#CE93D8" stroke-width="1.2"/>
      <text x="42" y="231" font-family="Georgia,serif" font-size="8" fill="#CE93D8" opacity="0.8">ÉT. 1</text>
      <circle cx="50" cy="238" r="8" fill="#D2691E" stroke="rgba(255,255,255,0.3)" stroke-width="1"/>
       <text x="50" y="242" text-anchor="middle" font-family="Georgia" font-size="7" fill="white"></text><circle cx="68" cy="238" r="8" fill="#D2691E" stroke="rgba(255,255,255,0.3)" stroke-width="1"/>
       <text x="68" y="242" text-anchor="middle" font-family="Georgia" font-size="7" fill="white"></text>
      <text x="42" y="256" font-family="Georgia,serif" font-size="10" font-weight="bold" fill="white">+3 VP</text>
      <text x="42" y="270" font-family="sans-serif" font-size="8" fill="rgba(255,255,255,0.6)">2 Argile</text>
    
      <rect x="282" y="215" width="230" height="52" rx="6" fill="rgba(0,0,0,0.55)" stroke="#CE93D8" stroke-width="1.2"/>
      <text x="294" y="231" font-family="Georgia,serif" font-size="8" fill="#CE93D8" opacity="0.8">ÉT. 2</text>
      <circle cx="302" cy="238" r="8" fill="#607D8B" stroke="rgba(255,255,255,0.3)" stroke-width="1"/>
       <text x="302" y="242" text-anchor="middle" font-family="Georgia" font-size="7" fill="white"></text><circle cx="320" cy="238" r="8" fill="#607D8B" stroke="rgba(255,255,255,0.3)" stroke-width="1"/>
       <text x="320" y="242" text-anchor="middle" font-family="Georgia" font-size="7" fill="white"></text><circle cx="338" cy="238" r="8" fill="#607D8B" stroke="rgba(255,255,255,0.3)" stroke-width="1"/>
       <text x="338" y="242" text-anchor="middle" font-family="Georgia" font-size="7" fill="white"></text>
      <text x="294" y="256" font-family="Georgia,serif" font-size="10" font-weight="bold" fill="white">Rejouer défausse</text>
      <text x="294" y="270" font-family="sans-serif" font-size="8" fill="rgba(255,255,255,0.6)">3 Minerai</text>
    
      <rect x="534" y="215" width="230" height="52" rx="6" fill="rgba(0,0,0,0.55)" stroke="#CE93D8" stroke-width="1.2"/>
      <text x="546" y="231" font-family="Georgia,serif" font-size="8" fill="#CE93D8" opacity="0.8">ÉT. 3</text>
      <circle cx="554" cy="238" r="8" fill="#AB47BC" stroke="rgba(255,255,255,0.3)" stroke-width="1"/>
       <text x="554" y="242" text-anchor="middle" font-family="Georgia" font-size="7" fill="white"></text><circle cx="572" cy="238" r="8" fill="#AB47BC" stroke="rgba(255,255,255,0.3)" stroke-width="1"/>
       <text x="572" y="242" text-anchor="middle" font-family="Georgia" font-size="7" fill="white"></text>
      <text x="546" y="256" font-family="Georgia,serif" font-size="10" font-weight="bold" fill="white">Rejouer défausse +2VP</text>
      <text x="546" y="270" font-family="sans-serif" font-size="8" fill="rgba(255,255,255,0.6)">2 Tissu</text>
    
  </g>
</svg>